<svg width="38" height="47" viewBox="0 0 38 47" fill="none" xmlns="http://www.w3.org/2000/svg">
<path d="M37.8652 39.4599L34.6028 34.0219C33.0961 31.512 32.2999 28.6371 32.2999 25.711V20.9475C32.2999 14.9337 28.287 9.84728 22.7995 8.20749V4.79688C22.7995 2.70107 21.0952 0.996704 18.9994 0.996704C16.9036 0.996704 15.1992 2.70107 15.1992 4.79688V8.20749C9.71183 9.84728 5.69887 14.9337 5.69887 20.9475V25.711C5.69887 28.6371 4.90271 31.51 3.39785 34.0201L0.135454 39.4581C-0.0412527 39.7526 -0.0450824 40.1174 0.124054 40.4157C0.29319 40.714 0.606702 40.8984 0.948716 40.8984H37.0501C37.3921 40.8984 37.7075 40.7141 37.8766 40.4177C38.0458 40.1212 38.0401 39.7525 37.8652 39.4599Z" fill="white"/>
<path d="M13.0156 42.7983C14.0873 45.0366 16.356 46.5985 18.9989 46.5985C21.6418 46.5985 23.9106 45.0366 24.9823 42.7983H13.0156Z" fill="white"/>
</svg>
