<svg width="41" height="47" viewBox="0 0 41 47" fill="none" xmlns="http://www.w3.org/2000/svg">
<g clip-path="url(#clip0)">
<path fill-rule="evenodd" clip-rule="evenodd" d="M28.118 10.8148C28.118 10.8148 27.4781 9.09295 27.5458 7.88089C27.5458 7.88089 20.7644 11.9594 18.2726 11.8952C18.2726 11.8952 22.8161 9.72768 23.4526 8.06658C21.3434 9.59938 16.7389 11.8952 15.2018 11.8311C15.2018 11.8311 17.2501 10.619 17.6327 9.59938C12.6423 10.8148 12.8996 14.7042 12.6423 18.5328C12.6423 18.5328 11.7485 14.1978 11.4268 13.2389C9.38193 6.35146 14.3046 0.804348 21.0827 0.7402C29.2657 0.611904 33.0407 6.41561 30.2239 13.688C29.7736 14.9608 28.4972 19.3634 28.4972 19.3634C28.6936 16.4902 29.2657 13.5563 28.118 10.8148Z" fill="white"/>
<path fill-rule="evenodd" clip-rule="evenodd" d="M41 36.4673C36.4091 42.8314 28.9133 46.9774 20.4492 46.9774C12.0461 46.9774 4.60107 42.8922 0 36.6023C1.54046 29.8735 6.43947 31.1464 14.5616 26.629C16.2883 28.1618 18.3975 29.2455 20.6354 29.2455C22.8124 29.2455 24.8573 28.1618 26.5163 26.629C34.5504 31.1193 39.3884 30.2652 41 36.4673Z" fill="white"/>
<path fill-rule="evenodd" clip-rule="evenodd" d="M20.4458 14.8325H21.7221C21.7221 14.6401 21.7221 14.5759 21.7221 14.451C21.7221 14.3261 21.7221 14.1978 21.7831 14.1336C21.9117 14.0695 22.037 14.0053 22.1047 14.0053H27.542C27.6707 14.0053 27.7316 14.0695 27.8603 14.1336C27.928 14.1978 27.928 14.3261 27.928 14.451C27.928 15.0891 27.6064 17.3208 26.8412 17.8947C26.2657 18.3404 25.2432 18.4045 24.8606 18.4045C24.4103 18.4045 23.3879 18.3404 22.8157 17.8947C22.3011 17.5774 22.0438 16.4902 21.8542 15.5989H20.3205C20.1885 16.4902 19.9311 17.5774 19.4233 17.8947C18.8511 18.3404 17.8219 18.4045 17.3784 18.4045C16.9281 18.4045 15.9056 18.3404 15.3944 17.8947C14.5615 17.3208 14.3076 15.0891 14.2433 14.451C14.2433 14.3227 14.3042 14.1978 14.3719 14.1336C14.4329 14.0695 14.5615 14.0053 14.6902 14.0053H20.0598C20.1885 14.0053 20.3205 14.0695 20.3814 14.1336C20.5101 14.1978 20.5101 14.3261 20.5101 14.451C20.5101 14.5759 20.5067 14.6401 20.4458 14.8325Z" fill="#F7EC30"/>
<path fill-rule="evenodd" clip-rule="evenodd" d="M19.613 14.8325C19.4843 15.9163 19.1627 17.0642 18.9088 17.2566C18.6548 17.4491 18.1402 17.5774 17.3751 17.5774C16.6099 17.5774 16.0987 17.4491 15.9023 17.2566C15.5841 17.0642 15.3234 15.9196 15.1338 14.8325H19.613Z" fill="#F7EC30"/>
<path fill-rule="evenodd" clip-rule="evenodd" d="M27.0951 14.8325C26.8988 15.9163 26.6448 17.0642 26.3266 17.2566C26.1336 17.4491 25.6224 17.5774 24.8538 17.5774C24.021 17.5774 23.5097 17.4491 23.3201 17.2566C22.9985 17.0642 22.7446 15.9196 22.5482 14.8325H27.0951Z" fill="#F7EC30"/>
</g>
<defs>
<clipPath id="clip0">
<rect width="41" height="46.2406" fill="white" transform="translate(0 0.736816)"/>
</clipPath>
</defs>
</svg>
