<svg width="44" height="44" viewBox="0 0 44 44" fill="none" xmlns="http://www.w3.org/2000/svg">
<path d="M29.5014 32.7407C25.8278 35.5959 21.2047 36.9428 16.5734 36.5073C11.9421 36.0718 7.65086 33.8866 4.57339 30.3966C1.49591 26.9066 -0.136358 22.3742 0.00892899 17.7224C0.154216 13.0706 2.06614 8.64907 5.35539 5.35813C8.64465 2.06719 13.0639 0.154295 17.7134 0.00893356C22.3628 -0.136428 26.8928 1.49668 30.381 4.57573C33.8692 7.65477 36.0533 11.9482 36.4886 16.5819C36.9239 21.2156 35.5777 25.841 32.724 29.5165L43.326 40.0842C44.2235 40.9788 44.2248 42.4319 43.329 43.3282C42.4331 44.2245 40.98 44.2238 40.0849 43.3267L29.5242 32.7407H29.5014ZM18.3021 32.009C20.103 32.009 21.8862 31.6541 23.55 30.9646C25.2138 30.2751 26.7255 29.2644 27.9989 27.9904C29.2723 26.7163 30.2824 25.2038 30.9716 23.5392C31.6608 21.8746 32.0155 20.0904 32.0155 18.2887C32.0155 16.4869 31.6608 14.7027 30.9716 13.0381C30.2824 11.3735 29.2723 9.86096 27.9989 8.58691C26.7255 7.31285 25.2138 6.30222 23.55 5.61271C21.8862 4.9232 20.103 4.56831 18.3021 4.56831C14.6652 4.56831 11.1771 6.01384 8.60537 8.58691C6.03362 11.16 4.58883 14.6498 4.58883 18.2887C4.58883 21.9275 6.03362 25.4173 8.60537 27.9904C11.1771 30.5635 14.6652 32.009 18.3021 32.009Z" fill="white"/>
</svg>
